<svg id="visual" viewBox="0 0 900 600" width="900" height="600" xmlns="http://www.w3.org/2000/svg" xmlns:xlink="http://www.w3.org/1999/xlink" version="1.1"><rect width="900" height="600" fill="#feeeed"></rect><g><g transform="translate(144 262)"><path d="M0 -40.2L34.8 -20.1L34.8 20.1L0 40.2L-34.8 20.1L-34.8 -20.1Z" fill="#feada9"></path></g><g transform="translate(157 100)"><path d="M0 -23L19.9 -11.5L19.9 11.5L0 23L-19.9 11.5L-19.9 -11.5Z" fill="#feada9"></path></g><g transform="translate(457 300)"><path d="M0 -39L33.8 -19.5L33.8 19.5L0 39L-33.8 19.5L-33.8 -19.5Z" fill="#feada9"></path></g><g transform="translate(500 565)"><path d="M0 -34L29.4 -17L29.4 17L0 34L-29.4 17L-29.4 -17Z" fill="#feada9"></path></g><g transform="translate(874 171)"><path d="M0 -27L23.4 -13.5L23.4 13.5L0 27L-23.4 13.5L-23.4 -13.5Z" fill="#feada9"></path></g><g transform="translate(798 552)"><path d="M0 -20L17.3 -10L17.3 10L0 20L-17.3 10L-17.3 -10Z" fill="#feada9"></path></g><g transform="translate(881 89)"><path d="M0 -30L26 -15L26 15L0 30L-26 15L-26 -15Z" fill="#feada9"></path></g><g transform="translate(664 547)"><path d="M0 -38L32.9 -19L32.9 19L0 38L-32.9 19L-32.9 -19Z" fill="#feada9"></path></g><g transform="translate(710 249)"><path d="M0 -32L27.7 -16L27.7 16L0 32L-27.7 16L-27.7 -16Z" fill="#feada9"></path></g><g transform="translate(772 459)"><path d="M0 -32L27.7 -16L27.7 16L0 32L-27.7 16L-27.7 -16Z" fill="#feada9"></path></g><g transform="translate(880 487)"><path d="M0 -15L13 -7.5L13 7.5L0 15L-13 7.5L-13 -7.5Z" fill="#feada9"></path></g><g transform="translate(267 202)"><path d="M0 -29L25.1 -14.5L25.1 14.5L0 29L-25.1 14.5L-25.1 -14.5Z" fill="#feada9"></path></g><g transform="translate(497 165)"><path d="M0 -37L32 -18.5L32 18.5L0 37L-32 18.5L-32 -18.5Z" fill="#feada9"></path></g><g transform="translate(649 384)"><path d="M0 -31L26.8 -15.5L26.8 15.5L0 31L-26.8 15.5L-26.8 -15.5Z" fill="#feada9"></path></g><g transform="translate(19 488)"><path d="M0 -24L20.8 -12L20.8 12L0 24L-20.8 12L-20.8 -12Z" fill="#feada9"></path></g><g transform="translate(329 562)"><path d="M0 -18L15.6 -9L15.6 9L0 18L-15.6 9L-15.6 -9Z" fill="#feada9"></path></g><g transform="translate(671 43)"><path d="M0 -28L24.2 -14L24.2 14L0 28L-24.2 14L-24.2 -14Z" fill="#feada9"></path></g><g transform="translate(338 99)"><path d="M0 -33L28.6 -16.5L28.6 16.5L0 33L-28.6 16.5L-28.6 -16.5Z" fill="#feada9"></path></g><g transform="translate(302 287)"><path d="M0 -17L14.7 -8.5L14.7 8.5L0 17L-14.7 8.5L-14.7 -8.5Z" fill="#feada9"></path></g><g transform="translate(433 31)"><path d="M0 -37L32 -18.5L32 18.5L0 37L-32 18.5L-32 -18.5Z" fill="#feada9"></path></g><g transform="translate(153 437)"><path d="M0 -27L23.4 -13.5L23.4 13.5L0 27L-23.4 13.5L-23.4 -13.5Z" fill="#feada9"></path></g><g transform="translate(2 264)"><path d="M0 -17L14.7 -8.5L14.7 8.5L0 17L-14.7 8.5L-14.7 -8.5Z" fill="#feada9"></path></g><g transform="translate(806 339)"><path d="M0 -24L20.8 -12L20.8 12L0 24L-20.8 12L-20.8 -12Z" fill="#feada9"></path></g><g transform="translate(241 58)"><path d="M0 -31L26.8 -15.5L26.8 15.5L0 31L-26.8 15.5L-26.8 -15.5Z" fill="#feada9"></path></g><g transform="translate(765 167)"><path d="M0 -27L23.4 -13.5L23.4 13.5L0 27L-23.4 13.5L-23.4 -13.5Z" fill="#feada9"></path></g><g transform="translate(35 395)"><path d="M0 -34L29.4 -17L29.4 17L0 34L-29.4 17L-29.4 -17Z" fill="#feada9"></path></g><g transform="translate(563 67)"><path d="M0 -16L13.9 -8L13.9 8L0 16L-13.9 8L-13.9 -8Z" fill="#feada9"></path></g><g transform="translate(525 427)"><path d="M0 -17L14.7 -8.5L14.7 8.5L0 17L-14.7 8.5L-14.7 -8.5Z" fill="#feada9"></path></g><g transform="translate(412 202)"><path d="M0 -35L30.3 -17.5L30.3 17.5L0 35L-30.3 17.5L-30.3 -17.5Z" fill="#feada9"></path></g><g transform="translate(807 248)"><path d="M0 -20L17.3 -10L17.3 10L0 20L-17.3 10L-17.3 -10Z" fill="#feada9"></path></g><g transform="translate(625 224)"><path d="M0 -33L28.6 -16.5L28.6 16.5L0 33L-28.6 16.5L-28.6 -16.5Z" fill="#feada9"></path></g><g transform="translate(380 356)"><path d="M0 -31L26.8 -15.5L26.8 15.5L0 31L-26.8 15.5L-26.8 -15.5Z" fill="#feada9"></path></g><g transform="translate(327 458)"><path d="M0 -16L13.9 -8L13.9 8L0 16L-13.9 8L-13.9 -8Z" fill="#feada9"></path></g><g transform="translate(144 567)"><path d="M0 -20L17.3 -10L17.3 10L0 20L-17.3 10L-17.3 -10Z" fill="#feada9"></path></g><g transform="translate(412 593)"><path d="M0 -37L32 -18.5L32 18.5L0 37L-32 18.5L-32 -18.5Z" fill="#feada9"></path></g><g transform="translate(426 478)"><path d="M0 -39L33.8 -19.5L33.8 19.5L0 39L-33.8 19.5L-33.8 -19.5Z" fill="#feada9"></path></g><g transform="translate(615 472)"><path d="M0 -21L18.2 -10.5L18.2 10.5L0 21L-18.2 10.5L-18.2 -10.5Z" fill="#feada9"></path></g><g transform="translate(23 99)"><path d="M0 -27L23.4 -13.5L23.4 13.5L0 27L-23.4 13.5L-23.4 -13.5Z" fill="#feada9"></path></g><g transform="translate(44 186)"><path d="M0 -34L29.4 -17L29.4 17L0 34L-29.4 17L-29.4 -17Z" fill="#feada9"></path></g><g transform="translate(210 508)"><path d="M0 -19L16.5 -9.5L16.5 9.5L0 19L-16.5 9.5L-16.5 -9.5Z" fill="#feada9"></path></g><g transform="translate(253 402)"><path d="M0 -23L19.9 -11.5L19.9 11.5L0 23L-19.9 11.5L-19.9 -11.5Z" fill="#feada9"></path></g><g transform="translate(181 360)"><path d="M0 -29L25.1 -14.5L25.1 14.5L0 29L-25.1 14.5L-25.1 -14.5Z" fill="#feada9"></path></g><g transform="translate(730 370)"><path d="M0 -29L25.1 -14.5L25.1 14.5L0 29L-25.1 14.5L-25.1 -14.5Z" fill="#feada9"></path></g><g transform="translate(536 322)"><path d="M0 -16L13.9 -8L13.9 8L0 16L-13.9 8L-13.9 -8Z" fill="#feada9"></path></g><g transform="translate(62 584)"><path d="M0 -30L26 -15L26 15L0 30L-26 15L-26 -15Z" fill="#feada9"></path></g><g transform="translate(98 21)"><path d="M0 -18L15.6 -9L15.6 9L0 18L-15.6 9L-15.6 -9Z" fill="#feada9"></path></g><g transform="translate(327 5)"><path d="M0 -33L28.6 -16.5L28.6 16.5L0 33L-28.6 16.5L-28.6 -16.5Z" fill="#feada9"></path></g><g transform="translate(693 131)"><path d="M0 -16L13.9 -8L13.9 8L0 16L-13.9 8L-13.9 -8Z" fill="#feada9"></path></g><g transform="translate(178 180)"><path d="M0 -30L26 -15L26 15L0 30L-26 15L-26 -15Z" fill="#feada9"></path></g><g transform="translate(788 16)"><path d="M0 -17L14.7 -8.5L14.7 8.5L0 17L-14.7 8.5L-14.7 -8.5Z" fill="#feada9"></path></g><g transform="translate(580 148)"><path d="M0 -23L19.9 -11.5L19.9 11.5L0 23L-19.9 11.5L-19.9 -11.5Z" fill="#feada9"></path></g><g transform="translate(893 258)"><path d="M0 -30L26 -15L26 15L0 30L-26 15L-26 -15Z" fill="#feada9"></path></g><g transform="translate(892 357)"><path d="M0 -32L27.7 -16L27.7 16L0 32L-27.7 16L-27.7 -16Z" fill="#feada9"></path></g><g transform="translate(252 598)"><path d="M0 -30L26 -15L26 15L0 30L-26 15L-26 -15Z" fill="#feada9"></path></g><g transform="translate(583 550)"><path d="M0 -37L32 -18.5L32 18.5L0 37L-32 18.5L-32 -18.5Z" fill="#feada9"></path></g><g transform="translate(898 11)"><path d="M0 -38L32.9 -19L32.9 19L0 38L-32.9 19L-32.9 -19Z" fill="#feada9"></path></g><g transform="translate(98 330)"><path d="M0 -38L32.9 -19L32.9 19L0 38L-32.9 19L-32.9 -19Z" fill="#feada9"></path></g><g transform="translate(617 305)"><path d="M0 -17L14.7 -8.5L14.7 8.5L0 17L-14.7 8.5L-14.7 -8.5Z" fill="#feada9"></path></g><g transform="translate(895 567)"><path d="M0 -26L22.5 -13L22.5 13L0 26L-22.5 13L-22.5 -13Z" fill="#feada9"></path></g><g transform="translate(11 5)"><path d="M0 -28L24.2 -14L24.2 14L0 28L-24.2 14L-24.2 -14Z" fill="#feada9"></path></g><g transform="translate(730 597)"><path d="M0 -22L19.1 -11L19.1 11L0 22L-19.1 11L-19.1 -11Z" fill="#feada9"></path></g></g></svg>